<svg version="1.1" id="Layer_1" xmlns="http://www.w3.org/2000/svg" xmlns:xlink="http://www.w3.org/1999/xlink" x="0px" y="0px"
	 width="100%" viewBox="0 0 1024 1024" enable-background="new 0 0 1024 1024" xml:space="preserve">
<path fill="#000000" opacity="1.000000" stroke="none" 
	d="
M328.686646,632.313477 
	C315.789276,619.259033 303.146576,606.449951 290.503174,593.641541 
	C284.459045,587.518555 284.458466,587.519104 277.313446,592.133179 
	C219.920868,629.195740 140.945541,596.000610 126.765648,528.854431 
	C116.943474,482.343384 137.899078,436.838196 180.230545,415.652771 
	C226.408218,392.542419 283.481110,407.726288 311.092987,453.724579 
	C316.731537,463.117767 320.494873,473.210388 322.884186,483.817993 
	C323.571777,486.870667 324.892151,487.936920 327.907593,487.925964 
	C353.740021,487.832184 379.572754,487.815857 405.405365,487.832336 
	C407.761566,487.833832 409.520508,486.954041 411.150269,485.348297 
	C418.389435,478.215881 425.632812,471.086182 432.981812,464.067657 
	C435.709076,461.463043 436.756897,458.550903 436.725189,454.751648 
	C436.568146,435.920013 436.567871,417.085663 436.722717,398.254028 
	C436.752899,394.582336 435.494385,391.972839 432.970306,389.471252 
	C421.370514,377.974823 409.823792,366.422913 398.408691,354.743652 
	C395.755615,352.029175 392.978149,350.820404 389.168182,350.876892 
	C373.837738,351.104340 358.500366,350.926331 343.172546,351.240753 
	C337.055969,351.366211 332.374695,349.526276 328.186981,344.952454 
	C306.130920,320.862518 283.928406,296.906433 262.604797,272.158203 
	C256.596130,265.184540 251.601990,257.532806 247.708420,249.162750 
	C238.946671,230.327515 243.204407,213.123047 254.351746,196.888962 
	C279.512390,160.247040 309.403870,127.954620 343.891083,99.908653 
	C362.724518,84.592751 382.904358,71.423584 405.095398,61.477215 
	C409.186676,59.643440 413.382782,57.909779 417.694519,56.728840 
	C427.424805,54.063808 436.630280,60.265163 437.301697,70.309219 
	C438.680603,90.937744 437.862488,111.617203 438.033722,132.273804 
	C438.177338,149.602005 437.943054,166.934738 437.705017,184.263138 
	C437.669739,186.829239 438.969482,188.249756 440.511047,189.776733 
	C447.378235,196.578979 454.290131,203.337128 461.078796,210.216873 
	C462.980499,212.144058 465.043945,212.978821 467.725281,212.973053 
	C501.057678,212.901215 534.390198,212.866806 567.722656,212.896881 
	C570.627930,212.899506 572.776672,211.859055 574.762268,209.828812 
	C580.820190,203.634674 586.907593,197.464523 593.147461,191.455261 
	C595.873840,188.829727 596.919983,185.954163 596.906738,182.162140 
	C596.781311,146.330246 596.797607,110.497803 596.808716,74.665527 
	C596.812012,64.058762 602.731506,56.977470 612.004395,56.333385 
	C615.604187,56.083344 618.936157,57.279701 622.163391,58.568382 
	C683.493225,83.058372 731.418396,123.018379 762.753357,181.644394 
	C776.945618,208.197311 784.928101,236.800598 788.373413,266.733612 
	C790.993347,289.495453 790.222900,312.313324 790.217957,335.120880 
	C790.215881,344.828918 783.315796,351.112122 772.919617,351.160309 
	C753.253845,351.251526 733.587219,351.178772 713.920959,351.150665 
	C690.755005,351.117584 667.588745,351.098419 644.423279,350.965393 
	C641.383972,350.947968 639.029724,351.730896 636.853760,353.927490 
	C624.890564,366.004059 612.861084,378.015747 600.759766,389.953735 
	C598.665039,392.020172 597.976135,394.277008 597.998047,397.099060 
	C598.082275,407.931458 597.957092,418.765747 598.079407,429.597443 
	C598.135742,434.585541 596.362244,438.477325 592.847351,442.042328 
	C558.798096,476.577698 523.805908,510.155609 489.347076,544.273987 
	C485.342529,548.239014 480.737579,548.910278 475.658539,548.919312 
	C448.159363,548.968201 420.660156,549.035034 393.160980,549.053040 
	C373.828125,549.065674 354.495178,549.010132 335.162292,548.985657 
	C333.351349,548.983398 331.540436,548.985413 328.948425,548.985413 
	C330.812775,552.628540 333.393127,554.690735 335.638092,556.946533 
	C363.964661,585.409302 392.333344,613.830261 420.699402,642.253784 
	C430.583282,652.157654 430.611908,653.347778 420.806244,662.941345 
	C389.363861,693.703735 357.972412,724.518738 326.382660,755.129089 
	C322.643951,758.751770 321.290009,761.980530 322.312714,767.267395 
	C327.753235,795.392212 321.738556,821.146606 305.034454,844.354004 
	C281.700836,876.772034 239.434402,891.754211 200.543610,882.738831 
	C162.504608,873.920837 129.906998,841.472473 125.040993,797.400818 
	C117.858711,732.350830 168.846436,680.851685 230.190308,684.944824 
	C250.821762,686.321350 269.641205,692.881104 285.763214,706.125671 
	C289.354279,709.075745 291.762054,708.903564 295.038940,705.638672 
	C311.446991,689.290771 327.987213,673.073486 344.645844,656.980896 
	C347.880890,653.855835 348.295441,651.678528 344.835938,648.468201 
	C339.345062,643.372681 334.220490,637.882385 328.686646,632.313477 
M689.907898,118.605858 
	C667.573730,99.527031 642.585571,85.026474 615.213379,74.478058 
	C613.722229,77.135551 614.267944,79.341415 614.266479,81.447029 
	C614.241882,116.109573 614.183228,150.772552 614.353394,185.434357 
	C614.384155,191.693069 612.607422,196.634888 607.998596,200.982285 
	C600.243469,208.297379 592.673950,215.831207 585.379639,223.604599 
	C580.809204,228.475220 575.632812,230.476181 568.994751,230.442825 
	C534.499756,230.269363 500.003113,230.296234 465.507629,230.416656 
	C459.793823,230.436584 455.194580,228.692032 451.208954,224.632568 
	C443.153809,216.428223 435.059753,208.255203 426.760132,200.300507 
	C422.366638,196.089645 420.504486,191.375168 420.539825,185.226120 
	C420.739960,150.398071 420.651733,115.568260 420.608154,80.739120 
	C420.605774,78.829033 421.228912,76.754333 419.854309,74.977211 
	C417.832031,74.521713 416.255127,75.640175 414.613922,76.317612 
	C403.338013,80.971954 392.697968,86.824837 382.475739,93.463921 
	C352.210114,113.120659 325.958618,137.366409 301.978516,164.157990 
	C288.518188,179.196457 276.121277,195.082153 265.438812,212.251160 
	C261.226562,219.021179 259.654236,226.164673 261.079956,234.196182 
	C262.917175,244.545868 268.891602,252.521637 275.262207,260.191223 
	C295.178253,284.168243 317.003387,306.447754 337.631622,329.794739 
	C340.138824,332.632385 342.962921,333.865570 346.796234,333.823883 
	C361.792755,333.660767 376.796539,333.959961 391.788208,333.642609 
	C398.984344,333.490234 404.601624,335.773865 409.567200,340.947632 
	C422.719116,354.650696 436.095490,368.138733 449.422607,381.672852 
	C452.148682,384.441223 453.408173,387.579224 453.393188,391.523743 
	C453.303192,415.187256 453.292023,438.851654 453.418121,462.514893 
	C453.440460,466.708099 451.929474,469.771790 448.970062,472.600281 
	C440.178070,481.003510 431.343689,489.379852 422.927002,498.151581 
	C418.146881,503.133423 412.718506,505.096588 405.997803,505.044586 
	C387.501160,504.901398 369.002563,505.018311 350.504761,505.014984 
	C340.839355,505.013214 331.171875,505.089844 321.509216,504.916199 
	C314.034332,504.781830 311.380798,502.016083 310.704926,494.699860 
	C310.384918,491.235779 309.894104,487.757324 309.111725,484.370636 
	C297.129639,432.505127 239.669571,404.212097 190.501999,425.923035 
	C133.041916,451.295685 119.583893,526.900513 164.862701,569.960205 
	C195.507462,599.103088 244.787750,601.933044 276.712769,576.383240 
	C287.503296,567.747620 288.740601,567.832153 298.549866,577.875488 
	C298.666290,577.994751 298.781281,578.115295 298.898651,578.233582 
	C316.738434,596.212585 334.618591,614.151855 352.373505,632.214172 
	C354.943756,634.828979 356.963806,634.986084 359.473907,632.430359 
	C362.625824,629.221130 365.714050,625.917603 369.132294,623.010376 
	C372.649658,620.018982 372.530212,617.769897 369.226257,614.537842 
	C354.456055,600.088867 339.888885,585.432251 325.266907,570.832092 
	C318.899414,564.474121 312.535309,558.111633 306.255249,551.667786 
	C304.019989,549.374146 302.214539,546.845764 302.913452,543.231995 
	C304.660187,534.200317 307.570953,531.689270 316.721527,531.688599 
	C368.548737,531.684753 420.375977,531.662415 472.203064,531.745911 
	C475.748901,531.751648 478.509033,530.969666 481.116882,528.380859 
	C513.282654,496.450104 545.524231,464.595642 577.807251,432.783356 
	C580.024475,430.598389 580.807068,428.258911 580.767029,425.227112 
	C580.632629,415.063324 580.923828,404.889862 580.607544,394.733948 
	C580.416016,388.585907 582.494873,383.851318 586.846252,379.631073 
	C600.120789,366.756683 613.416809,353.894257 626.319946,340.652466 
	C631.159668,335.685760 636.465454,333.745331 643.190613,333.770996 
	C674.852966,333.891724 706.516113,333.799072 738.179016,333.786285 
	C748.177795,333.782227 758.176941,333.744080 768.175171,333.819946 
	C771.152649,333.842529 772.855957,333.053497 772.839966,329.625824 
	C772.732910,306.653076 774.070923,283.593384 770.462036,260.789093 
	C761.420776,203.659042 734.421326,156.539886 689.907898,118.605858 
M237.365662,826.949158 
	C257.189056,820.345886 269.076538,802.052917 268.403351,783.717651 
	C267.421967,756.988708 245.534180,738.513794 218.926468,741.417114 
	C196.522095,743.861755 178.084839,762.394287 179.695404,787.070068 
	C181.653366,817.068604 207.193695,834.442078 237.365662,826.949158 
z"/>
<path fill="#000000" opacity="1.000000" stroke="none" 
	d="
M834.133179,604.347534 
	C787.870667,615.342041 742.637451,594.685913 721.530884,553.079041 
	C720.042236,550.144531 718.195862,549.034729 714.923889,549.043884 
	C686.931091,549.122437 658.937622,549.092529 630.944885,548.978149 
	C627.682129,548.964844 625.283142,550.013123 623.009460,552.306458 
	C615.856689,559.521301 608.608521,566.645813 601.242981,573.642944 
	C598.866455,575.900574 597.974365,578.307495 597.977722,581.562073 
	C598.082886,684.035217 598.044006,786.508606 598.201172,888.981628 
	C598.232361,909.320496 593.830566,928.306213 580.311584,943.776978 
	C557.705200,969.646790 529.056763,979.271790 495.665497,970.342407 
	C463.164703,961.651184 443.920227,939.803528 437.488464,906.698425 
	C436.779694,903.050354 436.633484,899.434875 436.632446,895.776794 
	C436.610138,816.962524 436.656677,738.148132 436.478424,659.334229 
	C436.463989,652.947205 438.588135,648.352783 443.056305,643.966309 
	C493.701965,594.246399 544.240173,544.416931 594.732117,494.540924 
	C598.036743,491.276581 601.468323,489.759003 606.209900,489.784027 
	C638.867737,489.956390 671.527222,489.799408 704.185242,489.955933 
	C708.955933,489.978790 710.994934,488.696655 712.141052,483.650208 
	C722.616394,437.525299 761.912964,404.047882 812.073975,405.099060 
	C860.521240,406.114319 899.510925,439.468414 908.212524,485.832794 
	C918.491638,540.602783 888.111633,588.603271 834.133179,604.347534 
M500.997284,611.500854 
	C486.362427,625.852051 471.773468,640.250610 457.049347,654.509644 
	C454.468781,657.008728 453.178558,659.548523 453.276367,663.228516 
	C453.510956,672.055298 453.318115,680.892822 453.386719,689.725281 
	C453.397278,691.083618 452.697693,692.743225 454.374420,693.788452 
	C456.476318,693.253784 457.685364,691.570374 459.082275,690.194336 
	C478.192444,671.369751 497.249359,652.491028 516.376526,633.683716 
	C549.408325,601.204468 582.492798,568.778748 615.513672,536.288391 
	C618.516418,533.333862 621.786987,531.646240 626.125793,531.657227 
	C656.957825,531.735107 687.790344,531.738159 718.622375,531.654236 
	C724.128479,531.639282 727.425232,533.702026 729.548889,539.076721 
	C744.670105,577.345581 782.348999,598.928101 822.755615,592.757080 
	C872.296936,585.190918 905.398621,537.102600 894.836731,488.041351 
	C884.891113,441.842896 842.009399,412.096893 796.000183,419.480865 
	C756.977295,425.743622 727.368103,457.694061 723.419739,497.800354 
	C722.640503,505.715149 720.851074,507.336670 712.631531,507.338348 
	C678.966064,507.345276 645.300476,507.348389 611.635132,507.281708 
	C608.515076,507.275543 605.990479,507.766144 603.572510,510.163940 
	C569.612000,543.840637 535.544250,577.409180 500.997284,611.500854 
z"/>
<path fill="#000000" opacity="1.000000" stroke="none" 
	d="
M900.434570,741.692749 
	C918.739441,782.946533 910.674316,828.603943 878.345947,858.100159 
	C850.049866,883.917358 816.489990,892.340759 779.590271,880.373901 
	C742.703369,868.411072 720.132019,842.597595 711.668396,804.636658 
	C708.987122,792.610535 708.756836,780.473389 711.143188,768.449158 
	C712.158813,763.331604 710.790039,760.042725 707.223694,756.576111 
	C677.240540,727.431824 647.383545,698.157654 617.520691,668.889832 
	C614.311829,665.744873 611.139587,662.532715 608.246765,659.101746 
	C603.679871,653.685181 603.631165,647.969971 608.556519,642.935852 
	C616.125000,635.200134 623.917786,627.664368 631.921692,620.380371 
	C637.880493,614.957581 644.373352,615.542664 650.582153,621.565430 
	C670.907715,641.282104 691.186157,661.047302 711.482483,680.794067 
	C720.436584,689.505737 729.456360,698.151672 738.301636,706.972534 
	C740.764465,709.428650 742.463440,709.766479 745.353271,707.353943 
	C793.106689,667.488831 870.217224,679.421326 900.434570,741.692749 
M792.303040,870.159790 
	C802.700378,872.166199 813.151306,872.574158 823.585144,870.674744 
	C872.176453,861.828918 903.125610,818.392822 895.335999,769.983337 
	C888.535767,727.722229 851.492798,696.993958 808.643982,697.514221 
	C784.062744,697.812683 763.121460,707.588318 745.836365,725.147705 
	C740.517639,730.550781 737.729858,730.566406 732.362793,725.362549 
	C710.950317,704.601501 689.584839,683.791992 668.204712,662.997559 
	C659.155518,654.196228 650.113037,645.388000 640.775818,636.298950 
	C636.939392,639.786133 633.423340,642.803894 630.112183,646.031799 
	C624.529785,651.473694 624.530762,651.584351 630.019714,656.970703 
	C660.819580,687.194519 691.587219,717.451782 722.536255,747.522217 
	C726.766174,751.632141 728.084229,755.656982 726.446594,761.310730 
	C722.928528,773.456543 722.420593,785.829346 724.158508,798.391418 
	C728.910767,832.742981 757.251770,862.982910 792.303040,870.159790 
z"/>
<path fill="#000000" opacity="1.000000" stroke="none" 
	d="
M239.058289,560.393311 
	C207.864258,568.140381 177.143829,549.858582 170.080902,519.675354 
	C162.662369,487.972504 182.348053,457.393738 214.314301,450.965271 
	C247.691559,444.253052 279.804199,470.018890 280.344818,503.945343 
	C280.788452,531.787231 266.550171,551.417053 239.058289,560.393311 
M203.439804,543.071960 
	C210.347961,547.185425 217.767136,548.893860 225.850281,548.740784 
	C257.513672,548.140991 277.673676,512.996826 262.009033,485.484802 
	C252.983490,469.633179 235.877396,460.848328 219.392426,463.599060 
	C200.402924,466.767700 186.485092,479.764343 182.755035,497.811462 
	C179.174408,515.135620 187.175949,533.074463 203.439804,543.071960 
z"/>
<path fill="#000000" opacity="1.000000" stroke="none" 
	d="
M835.044556,455.779907 
	C868.025879,473.046600 873.238281,513.556458 855.235291,538.732300 
	C841.737427,557.608032 818.068542,566.343811 795.252136,560.323730 
	C772.940979,554.436951 757.038391,535.488770 754.549072,512.464172 
	C750.593323,475.876892 779.166260,449.158417 811.149353,449.781708 
	C819.355530,449.941589 827.290344,451.910522 835.044556,455.779907 
M816.597168,463.795288 
	C794.635071,459.846863 773.731812,475.265625 768.637451,494.490906 
	C760.503662,525.185974 787.345886,554.811829 817.717773,548.116089 
	C838.357117,543.565979 851.908936,527.190002 852.022583,506.662231 
	C852.142883,484.939575 839.100769,468.865601 816.597168,463.795288 
z"/>
<path fill="#000000" opacity="1.000000" stroke="none" 
	d="
M846.905151,825.931885 
	C829.661377,840.448303 810.493103,844.437683 789.773071,836.555664 
	C769.243347,828.746094 757.417664,813.327087 754.510986,791.403809 
	C750.236511,759.163696 774.374573,728.864319 810.115845,729.058716 
	C834.155884,729.189392 851.890503,741.278564 861.049133,763.584717 
	C870.221558,785.924561 865.396179,806.302429 848.925964,823.917603 
	C848.357727,824.525391 847.749756,825.096069 846.905151,825.931885 
M850.800720,794.186157 
	C852.281738,787.934082 852.550171,781.539001 850.995178,775.389282 
	C843.549255,745.942078 812.244751,733.388916 786.322083,749.270386 
	C771.608948,758.284180 763.922729,777.164856 768.144836,793.921387 
	C772.827820,812.507385 787.953186,825.744507 805.709839,826.796936 
	C827.625610,828.095886 843.592957,816.793701 850.800720,794.186157 
z"/>
</svg>